<svg width="173" height="27" viewBox="0 0 173 27" fill="none" xmlns="http://www.w3.org/2000/svg">
<path d="M7.5 24.5L1 17.5L7.5 15L12 20L17.5 15L12 7.5V12.5L1 10L5.5 4.5" stroke="white" stroke-width="2" stroke-linecap="round" stroke-linejoin="round"/>
<path d="M31.368 7.514H26.088V5.6H38.826V7.514H33.546V21H31.368V7.514ZM42.6588 11.298C43.0255 10.6233 43.5681 10.11 44.2868 9.758C45.0055 9.406 45.8781 9.23 46.9048 9.23V11.276C46.7875 11.2613 46.6261 11.254 46.4208 11.254C45.2768 11.254 44.3748 11.5987 43.7148 12.288C43.0695 12.9627 42.7468 13.9307 42.7468 15.192V21H40.6348V9.34H42.6588V11.298ZM53.7324 9.23C55.3457 9.23 56.5777 9.626 57.4284 10.418C58.2937 11.21 58.7264 12.3907 58.7264 13.96V21H56.7244V19.46C56.3724 20.0027 55.8664 20.4207 55.2064 20.714C54.561 20.9927 53.791 21.132 52.8964 21.132C51.591 21.132 50.5424 20.8167 49.7504 20.186C48.973 19.5553 48.5844 18.7267 48.5844 17.7C48.5844 16.6733 48.9584 15.852 49.7064 15.236C50.4544 14.6053 51.6424 14.29 53.2704 14.29H56.6144V13.872C56.6144 12.9627 56.3504 12.266 55.8224 11.782C55.2944 11.298 54.517 11.056 53.4904 11.056C52.801 11.056 52.1264 11.1733 51.4664 11.408C50.8064 11.628 50.249 11.9287 49.7944 12.31L48.9144 10.726C49.5157 10.242 50.2344 9.87533 51.0704 9.626C51.9064 9.362 52.7937 9.23 53.7324 9.23ZM53.2484 19.504C54.055 19.504 54.7517 19.328 55.3384 18.976C55.925 18.6093 56.3504 18.096 56.6144 17.436V15.808H53.3584C51.569 15.808 50.6744 16.4093 50.6744 17.612C50.6744 18.1987 50.9017 18.6607 51.3564 18.998C51.811 19.3353 52.4417 19.504 53.2484 19.504ZM72.738 9.34L67.634 21H65.478L60.374 9.34H62.574L66.578 18.69L70.67 9.34H72.738ZM84.9248 15.236C84.9248 15.3973 84.9101 15.61 84.8808 15.874H75.4208C75.5528 16.9007 76.0001 17.7293 76.7628 18.36C77.5401 18.976 78.5008 19.284 79.6448 19.284C81.0381 19.284 82.1601 18.8147 83.0108 17.876L84.1768 19.24C83.6488 19.856 82.9888 20.3253 82.1968 20.648C81.4194 20.9707 80.5468 21.132 79.5788 21.132C78.3468 21.132 77.2541 20.8827 76.3008 20.384C75.3474 19.8707 74.6068 19.1593 74.0788 18.25C73.5654 17.3407 73.3088 16.314 73.3088 15.17C73.3088 14.0407 73.5581 13.0213 74.0568 12.112C74.5701 11.2027 75.2668 10.4987 76.1468 10C77.0414 9.48667 78.0461 9.23 79.1608 9.23C80.2754 9.23 81.2654 9.48667 82.1308 10C83.0108 10.4987 83.6928 11.2027 84.1768 12.112C84.6754 13.0213 84.9248 14.0627 84.9248 15.236ZM79.1608 11.012C78.1488 11.012 77.2981 11.32 76.6088 11.936C75.9341 12.552 75.5381 13.3587 75.4208 14.356H82.9008C82.7834 13.3733 82.3801 12.574 81.6908 11.958C81.0161 11.3273 80.1728 11.012 79.1608 11.012ZM87.8575 4.676H89.9695V21H87.8575V4.676ZM106.466 20.318C106.158 20.582 105.777 20.7873 105.322 20.934C104.868 21.066 104.398 21.132 103.914 21.132C102.741 21.132 101.832 20.8167 101.186 20.186C100.541 19.5553 100.218 18.6533 100.218 17.48V11.078H98.2382V9.34H100.218V6.788H102.33V9.34H105.674V11.078H102.33V17.392C102.33 18.0227 102.484 18.5067 102.792 18.844C103.115 19.1813 103.57 19.35 104.156 19.35C104.802 19.35 105.352 19.1667 105.806 18.8L106.466 20.318ZM113.627 21.132C112.468 21.132 111.427 20.8753 110.503 20.362C109.579 19.8487 108.853 19.1447 108.325 18.25C107.812 17.3407 107.555 16.314 107.555 15.17C107.555 14.026 107.812 13.0067 108.325 12.112C108.853 11.2027 109.579 10.4987 110.503 10C111.427 9.48667 112.468 9.23 113.627 9.23C114.786 9.23 115.82 9.48667 116.729 10C117.653 10.4987 118.372 11.2027 118.885 12.112C119.413 13.0067 119.677 14.026 119.677 15.17C119.677 16.314 119.413 17.3407 118.885 18.25C118.372 19.1447 117.653 19.8487 116.729 20.362C115.82 20.8753 114.786 21.132 113.627 21.132ZM113.627 19.284C114.375 19.284 115.042 19.1153 115.629 18.778C116.23 18.426 116.7 17.942 117.037 17.326C117.374 16.6953 117.543 15.9767 117.543 15.17C117.543 14.3633 117.374 13.652 117.037 13.036C116.7 12.4053 116.23 11.9213 115.629 11.584C115.042 11.2467 114.375 11.078 113.627 11.078C112.879 11.078 112.204 11.2467 111.603 11.584C111.016 11.9213 110.547 12.4053 110.195 13.036C109.858 13.652 109.689 14.3633 109.689 15.17C109.689 15.9767 109.858 16.6953 110.195 17.326C110.547 17.942 111.016 18.426 111.603 18.778C112.204 19.1153 112.879 19.284 113.627 19.284ZM133.83 14.158L131.014 17.018V21H128.814V5.6H131.014V14.202L139.374 5.6H141.882L135.304 12.53L142.3 21H139.726L133.83 14.158ZM153.82 9.34L148.166 22.166C147.667 23.354 147.081 24.19 146.406 24.674C145.746 25.158 144.947 25.4 144.008 25.4C143.436 25.4 142.879 25.3047 142.336 25.114C141.808 24.938 141.368 24.674 141.016 24.322L141.918 22.738C142.519 23.31 143.216 23.596 144.008 23.596C144.521 23.596 144.947 23.4567 145.284 23.178C145.636 22.914 145.951 22.452 146.23 21.792L146.604 20.978L141.456 9.34H143.656L147.726 18.668L151.752 9.34H153.82ZM155.791 9.34H157.903V21H155.791V9.34ZM156.847 7.096C156.436 7.096 156.092 6.964 155.813 6.7C155.549 6.436 155.417 6.11333 155.417 5.732C155.417 5.35067 155.549 5.028 155.813 4.764C156.092 4.48533 156.436 4.346 156.847 4.346C157.258 4.346 157.595 4.478 157.859 4.742C158.138 4.99133 158.277 5.30667 158.277 5.688C158.277 6.084 158.138 6.42133 157.859 6.7C157.595 6.964 157.258 7.096 156.847 7.096ZM172.254 9.34L167.15 21H164.994L159.89 9.34H162.09L166.094 18.69L170.186 9.34H172.254Z" fill="white"/>
</svg>
